<svg width="112" height="112" viewBox="0 0 112 112" fill="none" xmlns="http://www.w3.org/2000/svg">
<circle cx="56" cy="56" r="56" fill="#BA8880"/>
<path d="M14 54.725L14.775 53.2H18.5V54.275L18.725 54.425C18.9083 54.2583 19.1583 54.0667 19.475 53.85C19.8083 53.6167 20.2083 53.4083 20.675 53.225C21.1417 53.0417 21.6667 52.95 22.25 52.95C23.9833 52.95 25.225 53.525 25.975 54.675C26.275 54.2583 26.725 53.8667 27.325 53.5C27.9417 53.1167 28.7917 52.925 29.875 52.925C31.375 52.925 32.5 53.35 33.25 54.2C34 55.05 34.375 56.2417 34.375 57.775V60.975L34.9 63.475L34.375 65H29.875V58.425C29.875 57.7917 29.7333 57.3083 29.45 56.975C29.1833 56.625 28.7583 56.45 28.175 56.45C27.7917 56.45 27.4583 56.5917 27.175 56.875C26.8917 57.1583 26.75 57.5167 26.75 57.95V65H22.25V58.45C22.25 57.8167 22.1083 57.3333 21.825 57C21.5583 56.65 21.1333 56.475 20.55 56.475L19 56.95V65H14.5V57.475L14 54.725ZM39.6504 52.475L36.4754 49.275L39.6504 46.1L42.8254 49.275L39.6504 52.475ZM37.4004 65V56.725L36.8754 54.725L37.3754 53.2H41.9004V65H37.4004ZM44.7252 65V57.175L44.2002 54.675L44.7252 53.175H48.1252L48.6252 53.75C48.6252 53.75 48.7419 53.6833 48.9752 53.55C49.2085 53.4 49.5335 53.2583 49.9502 53.125C50.3835 52.9917 50.8835 52.925 51.4502 52.925C51.7835 52.925 52.1169 52.95 52.4502 53C52.7835 53.05 53.0419 53.1167 53.2252 53.2L54.8502 54.575L53.2252 57.775L49.9252 56.4L49.1752 56.65V65H44.7252ZM58.8389 65.25C58.1222 65.25 57.4555 65.15 56.8389 64.95C56.2389 64.7333 55.7555 64.3667 55.3889 63.85C55.0222 63.3333 54.8389 62.6167 54.8389 61.7C54.8389 60.8667 55.0472 60.175 55.4639 59.625C55.8805 59.075 56.4472 58.6667 57.1639 58.4C57.8805 58.1333 58.6889 58 59.5889 58C60.4555 58 61.1055 58.1 61.5389 58.3C61.9722 58.4833 62.3472 58.675 62.6639 58.875L62.8389 58.725C62.8389 58.225 62.7972 57.8083 62.7139 57.475C62.6305 57.1417 62.4389 56.8917 62.1389 56.725C61.8389 56.5417 61.3722 56.45 60.7389 56.45C60.1222 56.45 59.4639 56.5083 58.7639 56.625C58.0805 56.725 57.4472 56.8583 56.8639 57.025C56.2972 57.175 55.8722 57.325 55.5889 57.475V53.725C56.1055 53.5417 56.8389 53.375 57.7889 53.225C58.7555 53.0583 59.9389 52.975 61.3389 52.975C62.8389 52.975 64.0222 53.1667 64.8889 53.55C65.7722 53.9167 66.4055 54.4583 66.7889 55.175C67.1722 55.875 67.3639 56.7167 67.3639 57.7V61.025L67.8639 63.55L67.3639 65.025H63.0889V63.8L62.8389 63.675C62.7055 63.8083 62.4722 64 62.1389 64.25C61.8055 64.5 61.3639 64.7333 60.8139 64.95C60.2639 65.15 59.6055 65.25 58.8389 65.25ZM60.9639 61.975C61.4139 61.975 61.7972 61.9333 62.1139 61.85C62.4472 61.7667 62.6889 61.6917 62.8389 61.625V61.15C62.8389 60.9333 62.6805 60.725 62.3639 60.525C62.0639 60.325 61.5889 60.225 60.9389 60.225C60.0389 60.225 59.5889 60.5417 59.5889 61.175C59.5889 61.4417 59.6889 61.6417 59.8889 61.775C60.0889 61.9083 60.4472 61.975 60.9639 61.975ZM70.3594 65V57.475L69.8594 54.725L70.6344 53.2H74.3594V54.275L74.5844 54.425C74.7677 54.2583 75.0177 54.0667 75.3344 53.85C75.6677 53.6167 76.0677 53.4083 76.5344 53.225C77.001 53.0417 77.526 52.95 78.1094 52.95C79.6094 52.95 80.7344 53.375 81.4844 54.225C82.2344 55.075 82.6094 56.2667 82.6094 57.8V60.975L83.1344 63.475L82.6094 65H78.1094V58.45C78.1094 57.8167 77.9677 57.3333 77.6844 57C77.4177 56.65 76.9927 56.475 76.4094 56.475L74.8594 56.95V65H70.3594ZM88.7949 65.25C88.0783 65.25 87.4116 65.15 86.7949 64.95C86.1949 64.7333 85.7116 64.3667 85.3449 63.85C84.9783 63.3333 84.7949 62.6167 84.7949 61.7C84.7949 60.8667 85.0033 60.175 85.4199 59.625C85.8366 59.075 86.4033 58.6667 87.1199 58.4C87.8366 58.1333 88.6449 58 89.5449 58C90.4116 58 91.0616 58.1 91.4949 58.3C91.9283 58.4833 92.3033 58.675 92.6199 58.875L92.7949 58.725C92.7949 58.225 92.7533 57.8083 92.6699 57.475C92.5866 57.1417 92.3949 56.8917 92.0949 56.725C91.7949 56.5417 91.3283 56.45 90.6949 56.45C90.0783 56.45 89.4199 56.5083 88.7199 56.625C88.0366 56.725 87.4033 56.8583 86.8199 57.025C86.2533 57.175 85.8283 57.325 85.5449 57.475V53.725C86.0616 53.5417 86.7949 53.375 87.7449 53.225C88.7116 53.0583 89.8949 52.975 91.2949 52.975C92.7949 52.975 93.9783 53.1667 94.8449 53.55C95.7283 53.9167 96.3616 54.4583 96.7449 55.175C97.1283 55.875 97.3199 56.7167 97.3199 57.7V61.025L97.8199 63.55L97.3199 65.025H93.0449V63.8L92.7949 63.675C92.6616 63.8083 92.4283 64 92.0949 64.25C91.7616 64.5 91.3199 64.7333 90.7699 64.95C90.2199 65.15 89.5616 65.25 88.7949 65.25ZM90.9199 61.975C91.3699 61.975 91.7533 61.9333 92.0699 61.85C92.4033 61.7667 92.6449 61.6917 92.7949 61.625V61.15C92.7949 60.9333 92.6366 60.725 92.3199 60.525C92.0199 60.325 91.5449 60.225 90.8949 60.225C89.9949 60.225 89.5449 60.5417 89.5449 61.175C89.5449 61.4417 89.6449 61.6417 89.8449 61.775C90.0449 61.9083 90.4033 61.975 90.9199 61.975Z" fill="#FFCB86"/>
<line x1="45" y1="69.5" x2="99" y2="69.5" stroke="#FFCB86" stroke-width="3"/>
</svg>
