<svg width="84" height="20" viewBox="0 0 84 20" fill="none" xmlns="http://www.w3.org/2000/svg">
<path d="M7.07805e-08 8.725L0.775 7.2H4.5V8.275L4.725 8.425C4.90833 8.25833 5.15833 8.06667 5.475 7.85C5.80833 7.61667 6.20833 7.40833 6.675 7.225C7.14167 7.04167 7.66667 6.95 8.25 6.95C9.98333 6.95 11.225 7.525 11.975 8.675C12.275 8.25833 12.725 7.86667 13.325 7.5C13.9417 7.11667 14.7917 6.925 15.875 6.925C17.375 6.925 18.5 7.35 19.25 8.2C20 9.05 20.375 10.2417 20.375 11.775V14.975L20.9 17.475L20.375 19H15.875V12.425C15.875 11.7917 15.7333 11.3083 15.45 10.975C15.1833 10.625 14.7583 10.45 14.175 10.45C13.7917 10.45 13.4583 10.5917 13.175 10.875C12.8917 11.1583 12.75 11.5167 12.75 11.95V19H8.25V12.45C8.25 11.8167 8.10833 11.3333 7.825 11C7.55833 10.65 7.13333 10.475 6.55 10.475L5 10.95V19H0.5V11.475L7.07805e-08 8.725ZM25.6504 6.475L22.4754 3.275L25.6504 0.099999L28.8254 3.275L25.6504 6.475ZM23.4004 19V10.725L22.8754 8.725L23.3754 7.2H27.9004V19H23.4004ZM30.7252 19V11.175L30.2002 8.675L30.7252 7.175H34.1252L34.6252 7.75C34.6252 7.75 34.7419 7.68333 34.9752 7.55C35.2085 7.4 35.5335 7.25833 35.9502 7.125C36.3835 6.99167 36.8835 6.925 37.4502 6.925C37.7835 6.925 38.1169 6.95 38.4502 7C38.7835 7.05 39.0419 7.11667 39.2252 7.2L40.8502 8.575L39.2252 11.775L35.9252 10.4L35.1752 10.65V19H30.7252ZM44.8389 19.25C44.1222 19.25 43.4555 19.15 42.8389 18.95C42.2389 18.7333 41.7555 18.3667 41.3889 17.85C41.0222 17.3333 40.8389 16.6167 40.8389 15.7C40.8389 14.8667 41.0472 14.175 41.4639 13.625C41.8805 13.075 42.4472 12.6667 43.1639 12.4C43.8805 12.1333 44.6889 12 45.5889 12C46.4555 12 47.1055 12.1 47.5389 12.3C47.9722 12.4833 48.3472 12.675 48.6639 12.875L48.8389 12.725C48.8389 12.225 48.7972 11.8083 48.7139 11.475C48.6305 11.1417 48.4389 10.8917 48.1389 10.725C47.8389 10.5417 47.3722 10.45 46.7389 10.45C46.1222 10.45 45.4639 10.5083 44.7639 10.625C44.0805 10.725 43.4472 10.8583 42.8639 11.025C42.2972 11.175 41.8722 11.325 41.5889 11.475V7.725C42.1055 7.54167 42.8389 7.375 43.7889 7.225C44.7555 7.05833 45.9389 6.975 47.3389 6.975C48.8389 6.975 50.0222 7.16667 50.8889 7.55C51.7722 7.91667 52.4055 8.45833 52.7889 9.175C53.1722 9.875 53.3639 10.7167 53.3639 11.7V15.025L53.8639 17.55L53.3639 19.025H49.0889V17.8L48.8389 17.675C48.7055 17.8083 48.4722 18 48.1389 18.25C47.8055 18.5 47.3639 18.7333 46.8139 18.95C46.2639 19.15 45.6055 19.25 44.8389 19.25ZM46.9639 15.975C47.4139 15.975 47.7972 15.9333 48.1139 15.85C48.4472 15.7667 48.6889 15.6917 48.8389 15.625V15.15C48.8389 14.9333 48.6805 14.725 48.3639 14.525C48.0639 14.325 47.5889 14.225 46.9389 14.225C46.0389 14.225 45.5889 14.5417 45.5889 15.175C45.5889 15.4417 45.6889 15.6417 45.8889 15.775C46.0889 15.9083 46.4472 15.975 46.9639 15.975ZM56.3594 19V11.475L55.8594 8.725L56.6344 7.2H60.3594V8.275L60.5844 8.425C60.7677 8.25833 61.0177 8.06667 61.3344 7.85C61.6677 7.61667 62.0677 7.40833 62.5344 7.225C63.001 7.04167 63.526 6.95 64.1094 6.95C65.6094 6.95 66.7344 7.375 67.4844 8.225C68.2344 9.075 68.6094 10.2667 68.6094 11.8V14.975L69.1344 17.475L68.6094 19H64.1094V12.45C64.1094 11.8167 63.9677 11.3333 63.6844 11C63.4177 10.65 62.9927 10.475 62.4094 10.475L60.8594 10.95V19H56.3594ZM74.7949 19.25C74.0783 19.25 73.4116 19.15 72.7949 18.95C72.1949 18.7333 71.7116 18.3667 71.3449 17.85C70.9783 17.3333 70.7949 16.6167 70.7949 15.7C70.7949 14.8667 71.0033 14.175 71.4199 13.625C71.8366 13.075 72.4033 12.6667 73.1199 12.4C73.8366 12.1333 74.6449 12 75.5449 12C76.4116 12 77.0616 12.1 77.4949 12.3C77.9283 12.4833 78.3033 12.675 78.6199 12.875L78.7949 12.725C78.7949 12.225 78.7533 11.8083 78.6699 11.475C78.5866 11.1417 78.3949 10.8917 78.0949 10.725C77.7949 10.5417 77.3283 10.45 76.6949 10.45C76.0783 10.45 75.4199 10.5083 74.7199 10.625C74.0366 10.725 73.4033 10.8583 72.8199 11.025C72.2533 11.175 71.8283 11.325 71.5449 11.475V7.725C72.0616 7.54167 72.7949 7.375 73.7449 7.225C74.7116 7.05833 75.8949 6.975 77.2949 6.975C78.7949 6.975 79.9783 7.16667 80.8449 7.55C81.7283 7.91667 82.3616 8.45833 82.7449 9.175C83.1283 9.875 83.3199 10.7167 83.3199 11.7V15.025L83.8199 17.55L83.3199 19.025H79.0449V17.8L78.7949 17.675C78.6616 17.8083 78.4283 18 78.0949 18.25C77.7616 18.5 77.3199 18.7333 76.7699 18.95C76.2199 19.15 75.5616 19.25 74.7949 19.25ZM76.9199 15.975C77.3699 15.975 77.7533 15.9333 78.0699 15.85C78.4033 15.7667 78.6449 15.6917 78.7949 15.625V15.15C78.7949 14.9333 78.6366 14.725 78.3199 14.525C78.0199 14.325 77.5449 14.225 76.8949 14.225C75.9949 14.225 75.5449 14.5417 75.5449 15.175C75.5449 15.4417 75.6449 15.6417 75.8449 15.775C76.0449 15.9083 76.4033 15.975 76.9199 15.975Z" fill="#303659"/>
</svg>
